<svg width="5900" height="1299" viewBox="0 0 5900 1299" fill="none" xmlns="http://www.w3.org/2000/svg">
<g clip-path="url(#clip0_387_46)">
<circle cx="652.008" cy="650.008" r="647.008" fill="#FC0004"/>
<path d="M746.5 262.4H981.9L948.9 768.4H779.5L746.5 262.4ZM865.3 1061C841.833 1061 820.933 1055.87 802.6 1045.6C784.267 1036.07 769.967 1022.5 759.7 1004.9C749.433 987.3 744.3 966.767 744.3 943.3C744.3 919.1 749.067 898.2 758.6 880.6C768.867 863 783.167 849.433 801.5 839.9C819.833 829.633 841.1 824.5 865.3 824.5C888.767 824.5 909.3 829.633 926.9 839.9C945.233 849.433 959.167 863 968.7 880.6C978.967 898.2 984.1 919.1 984.1 943.3C984.1 966.767 978.967 987.3 968.7 1004.9C959.167 1022.5 945.233 1036.07 926.9 1045.6C909.3 1055.87 888.767 1061 865.3 1061Z" fill="white"/>
<path d="M388.1 855.1L289.1 799L389.2 649.4L413.4 683.5L231.9 695.6V583.4L413.4 596.6L390.3 631.8L290.2 481.1L389.2 423.9L459.6 579H439.8L510.2 423.9L609.2 482.2L509.1 630.7L486 596.6L667.5 583.4V695.6L486 683.5L509.1 649.4L609.2 799L510.2 856.2L439.8 698.9H459.6L388.1 855.1Z" fill="white"/>
<path d="M4238.8 1106C4109.2 1106 4044.4 1029.2 4044.4 894.8V846.8H4169.2V904.4C4169.2 964.4 4195.6 986 4237.6 986C4279.6 986 4306 964.4 4306 902C4306 832.4 4279.6 788 4193.2 712.4C4082.8 615.2 4046.8 546.8 4046.8 450.8C4046.8 318.8 4115.2 242 4243.6 242C4372 242 4435.6 318.8 4435.6 453.2V488H4310.8V444.8C4310.8 384.8 4286.8 362 4244.8 362C4202.8 362 4178.8 384.8 4178.8 442.4C4178.8 503.6 4206.4 548 4292.8 623.6C4403.2 720.8 4438 788 4438 892.4C4438 1029.2 4368.4 1106 4238.8 1106ZM4513.68 1094V254H4873.68V374H4645.68V596H4826.88V716H4645.68V974H4873.68V1094H4513.68ZM4949.62 1094V254H5115.22L5243.62 756.8H5246.02V254H5363.62V1094H5228.02L5069.62 480.8H5067.22V1094H4949.62ZM5461.73 1094V254H5663.33C5795.33 254 5860.13 327.2 5860.13 461.6V886.4C5860.13 1020.8 5795.33 1094 5663.33 1094H5461.73ZM5593.73 974H5660.93C5702.93 974 5728.13 952.4 5728.13 892.4V455.6C5728.13 395.6 5702.93 374 5660.93 374H5593.73V974Z" fill="#291212"/>
<path d="M1681.8 1106C1552.2 1106 1487.4 1029.2 1487.4 894.8V846.8H1612.2V904.4C1612.2 964.4 1638.6 986 1680.6 986C1722.6 986 1749 964.4 1749 902C1749 832.4 1722.6 788 1636.2 712.4C1525.8 615.2 1489.8 546.8 1489.8 450.8C1489.8 318.8 1558.2 242 1686.6 242C1815 242 1878.6 318.8 1878.6 453.2V488H1753.8V444.8C1753.8 384.8 1729.8 362 1687.8 362C1645.8 362 1621.8 384.8 1621.8 442.4C1621.8 503.6 1649.4 548 1735.8 623.6C1846.2 720.8 1881 788 1881 892.4C1881 1029.2 1811.4 1106 1681.8 1106ZM1956.68 1094V254H2145.08L2229.08 855.2H2231.48L2315.48 254H2503.88V1094H2379.08V458H2376.68L2280.68 1094H2170.28L2074.28 458H2071.88V1094H1956.68ZM2567.59 1094L2704.39 254H2883.19L3019.99 1094H2887.99L2863.99 927.2V929.6H2713.99L2689.99 1094H2567.59ZM2729.59 815.6H2848.39L2789.59 400.4H2787.19L2729.59 815.6ZM3252.11 1106C3122.51 1106 3057.71 1029.2 3057.71 894.8V846.8H3182.51V904.4C3182.51 964.4 3208.91 986 3250.91 986C3292.91 986 3319.31 964.4 3319.31 902C3319.31 832.4 3292.91 788 3206.51 712.4C3096.11 615.2 3060.11 546.8 3060.11 450.8C3060.11 318.8 3128.51 242 3256.91 242C3385.31 242 3448.91 318.8 3448.91 453.2V488H3324.11V444.8C3324.11 384.8 3300.11 362 3258.11 362C3216.11 362 3192.11 384.8 3192.11 442.4C3192.11 503.6 3219.71 548 3306.11 623.6C3416.51 720.8 3451.31 788 3451.31 892.4C3451.31 1029.2 3381.71 1106 3252.11 1106ZM3527 1094V254H3659V596H3800.6V254H3932.6V1094H3800.6V716H3659V1094H3527Z" fill="#221212"/>
<path d="M1694.8 1106C1565.2 1106 1500.4 1029.2 1500.4 894.8V846.8H1625.2V904.4C1625.2 964.4 1651.6 986 1693.6 986C1735.6 986 1762 964.4 1762 902C1762 832.4 1735.6 788 1649.2 712.4C1538.8 615.2 1502.8 546.8 1502.8 450.8C1502.8 318.8 1571.2 242 1699.6 242C1828 242 1891.6 318.8 1891.6 453.2V488H1766.8V444.8C1766.8 384.8 1742.8 362 1700.8 362C1658.8 362 1634.8 384.8 1634.8 442.4C1634.8 503.6 1662.4 548 1748.8 623.6C1859.2 720.8 1894 788 1894 892.4C1894 1029.2 1824.4 1106 1694.8 1106ZM1969.68 1094V254H2158.08L2242.08 855.2H2244.48L2328.48 254H2516.88V1094H2392.08V458H2389.68L2293.68 1094H2183.28L2087.28 458H2084.88V1094H1969.68ZM2580.59 1094L2717.39 254H2896.19L3032.99 1094H2900.99L2876.99 927.2V929.6H2726.99L2702.99 1094H2580.59ZM2742.59 815.6H2861.39L2802.59 400.4H2800.19L2742.59 815.6ZM3265.11 1106C3135.51 1106 3070.71 1029.2 3070.71 894.8V846.8H3195.51V904.4C3195.51 964.4 3221.91 986 3263.91 986C3305.91 986 3332.31 964.4 3332.31 902C3332.31 832.4 3305.91 788 3219.51 712.4C3109.11 615.2 3073.11 546.8 3073.11 450.8C3073.11 318.8 3141.51 242 3269.91 242C3398.31 242 3461.91 318.8 3461.91 453.2V488H3337.11V444.8C3337.11 384.8 3313.11 362 3271.11 362C3229.11 362 3205.11 384.8 3205.11 442.4C3205.11 503.6 3232.71 548 3319.11 623.6C3429.51 720.8 3464.31 788 3464.31 892.4C3464.31 1029.2 3394.71 1106 3265.11 1106ZM3540 1094V254H3672V596H3813.6V254H3945.6V1094H3813.6V716H3672V1094H3540Z" fill="#221212"/>
</g>
<defs>
<clipPath id="clip0_387_46">
<rect width="5900" height="1299" fill="white"/>
</clipPath>
</defs>
</svg>
